<svg id="Layer_1" data-name="Layer 1" xmlns="http://www.w3.org/2000/svg" viewBox="0 0 361.27 72.16"><title>Dropbox logo - Brandlogos.net</title><path d="M224.91,347.92l-21.54,13.53L224.91,375l21.54-13.53L268,375l21.54-13.53L268,347.92l-21.54,13.53Z" transform="translate(-203.37 -347.92)" style="fill:#0061fe"/><path d="M224.91,402l-21.54-13.53L224.91,375l21.54,13.53Z" transform="translate(-203.37 -347.92)" style="fill:#0061fe"/><path d="M246.45,388.51,268,375l21.54,13.53L268,402Z" transform="translate(-203.37 -347.92)" style="fill:#0061fe"/><path d="M246.45,420.08l-21.54-13.53L246.45,393,268,406.55Z" transform="translate(-203.37 -347.92)" style="fill:#0061fe"/><path d="M305.27,361.41h16.84c10.77,0,19.57,6.25,19.57,20.43v3c0,14.23-8.3,20.67-19.31,20.67H305.27Zm9.41,8v28h7.24c6.06,0,10.21-4,10.21-12.87v-2.29c0-8.85-4.27-12.87-10.53-12.87h-6.93Zm32,.43h7.49l1.17,8.3c1.43-5.69,5.08-8.6,11.7-8.6h2.29V379H365.5c-7.68,0-9.53,2.66-9.53,10.21v16.34h-9.28Zm24.63,18.62v-1c0-12,7.68-18.44,18.08-18.44,10.64,0,18,6.56,18,18.44v1c0,11.76-7.24,18-18,18C377.88,406.47,371.32,400.22,371.32,388.46Zm26.68-.13v-.87c0-6.68-3.35-10.58-8.61-10.58s-8.67,3.65-8.67,10.58v.87c0,6.44,3.28,10,8.6,10S398,394.84,398,388.33Zm14.3-18.5h7.8l.93,6.81c1.92-4.58,5.88-7.61,11.76-7.61,9.1,0,15,6.56,15,18.57v1c0,11.76-6.62,17.88-15,17.88-5.69,0-9.47-2.53-11.39-6.68v18h-9.1Zm26.12,18.56v-.8c0-7.12-3.65-10.64-8.54-10.64-5.19,0-8.67,4-8.67,10.58v.69c0,6.31,3.35,10.27,8.48,10.27C435,398.49,438.42,395,438.42,388.4ZM461.51,399l-.74,6.5h-8V357.89h9.1V376.2c2-4.64,5.94-7.18,11.57-7.18,8.48.06,14.79,5.94,14.79,17.82v1.06c0,11.89-5.94,18.57-15,18.57C467.26,406.47,463.43,403.63,461.51,399Zm17.34-11.15V387c0-6.56-3.59-10.14-8.54-10.14-5.14,0-8.67,4.15-8.67,10.27v.74c0,6.68,3.4,10.52,8.54,10.52C475.56,398.43,478.84,395,478.84,387.9Zm13.49.56v-1c0-12,7.61-18.44,18-18.44,10.64,0,18.08,6.56,18.08,18.44v1c0,11.76-7.31,18-18.08,18C498.83,406.47,492.34,400.22,492.34,388.46Zm26.67-.13v-.87c0-6.68-3.35-10.58-8.6-10.58s-8.67,3.65-8.67,10.58v.87c0,6.44,3.29,10,8.61,10S519,394.84,519,388.33Zm21.55-1.3-12.5-17.21h10.71l7.24,10.7,7.31-10.7H564L551.27,387l13.37,18.57H554.11l-8.24-11.82-8,11.82H527Z" transform="translate(-203.37 -347.92)"/></svg>