<?xml version="1.0" encoding="UTF-8"?><svg id="Layer_1" xmlns="http://www.w3.org/2000/svg" viewBox="0 0 156.24 128.44"><defs><style>.cls-1{fill:#fff;}.cls-1,.cls-2,.cls-3{fill-rule:evenodd;}.cls-2{fill:#231f20;}.cls-3{fill:#aeacad;}</style></defs><path class="cls-2" d="M99,60.55c.43.43.94,1.8,1.58,2.59-15.84,10.15-50.62,32.54-70.06,46.87,7.27,7.2,16.42,12.74,26.86,15.84,33.91,9.94,69.7-9.65,79.63-43.56,4.54-15.41,2.95-31.1-3.24-44.64-4.9,4.46-10.51,9-16.56,13.54-.22.07-.36.22-.58.36-4.75,3.6-9.72,7.2-14.9,10.73-.5-.86-1.08-1.73-1.58-2.59,3.6-2.52,7.13-4.97,10.58-7.42l.14-.14c3.96-2.81,7.78-5.54,11.3-8.35-7.2,4.25-14.76,7.63-22.25,10.44-.07-1.37.07-2.74,0-4.03-.79.65-1.73,1.3-2.52,1.94-1.08-.07-1.73-.5-2.88-.79-.86-1.15-1.73-2.23-2.59-3.31,11.52-4.9,23.54-11.3,36.22-20.38-8.06-11.66-20.02-20.74-34.63-25.06C59.62-7.34,23.83,12.17,13.82,46.15c-2.95,10.15-3.31,20.38-1.44,30.17,3.82-2.02,7.56-3.82,11.45-5.4v1.3l-1.51,2.09c-3.31,1.01-6.55,2.16-9.65,3.38,2.52,11.74,8.35,22.54,16.63,31.1,17.71-14.4,51.41-36.94,69.7-48.24h0Z"/><path class="cls-2" d="M40.54,64.94c-.14,0-.29.07-.5.14l.5.79v-.94h0Z"/><path class="cls-3" d="M31.61,67.9c-1.44.5-2.81,1.01-4.18,1.58v3.31c1.94-.5,4.03-1.08,6.12-1.58l-1.94-3.31h0Z"/><path class="cls-3" d="M23.83,70.92c-8.21,3.38-16.13,7.49-23.83,13.1,6.55-4.1,14.11-7.13,22.32-9.72l1.44-2.16.07-1.22h0Z"/><path class="cls-3" d="M91.94,48.02c.86,1.08,1.73,2.23,2.52,3.31,1.22.36,1.87.72,2.95.79.79-.65,1.73-1.3,2.52-1.94.07,1.37-.07,2.74,0,4.03,7.49-2.81,15.05-6.19,22.25-10.37-3.53,2.74-7.34,5.47-11.3,8.28l-.14.14h0c-3.46,2.45-6.98,4.9-10.58,7.42.5.86,1.08,1.73,1.58,2.59,5.11-3.53,10.15-7.13,14.9-10.73.22-.14.36-.29.58-.36,21.46-16.27,38.16-32.76,39.02-47.52-23.4,23.11-44.57,35.93-64.3,44.35h0Z"/><path class="cls-3" d="M54.79,66.46l.22-.72c-1.01-1.51-1.94-2.88-2.81-4.25-2.74.79-5.4,1.58-8.06,2.38v4.9c3.46-.79,7.06-1.51,10.66-2.3h0Z"/><path class="cls-3" d="M98.93,60.55c.5.5,1.01,1.8,1.66,2.59-20.95,13.39-74.59,47.88-82.87,57.53,1.44-7.56,56.16-44.57,81.22-60.12h0Z"/><path class="cls-3" d="M54,60.91c.5.94,1.08,1.87,1.58,2.74l1.01-3.46c-.86.22-1.73.5-2.59.72h0Z"/><path class="cls-3" d="M81.29,60.26c-.14-.36-.14-.79-.14-1.22.07-3.74,3.82-7.78,8.71-7.99.86-.07,1.58-.07,2.23-.07-.58-.79-1.22-1.51-1.87-2.23-6.91,2.88-13.54,5.26-20.09,7.34l2.23,6.48c2.95-.72,5.9-1.51,8.93-2.3h0Z"/><path class="cls-2" d="M95.69,55.8c-.22-.36-.5-.72-.79-1.01-3.38-.79-6.19.22-6.19,1.58,0,.65.29,1.08.79,1.44,2.09-.65,4.18-1.3,6.19-2.02h0Z"/><path class="cls-1" d="M112.25,51.19c-.5.36-1.01.72-1.51,1.08-.65-.65-1.15-1.15-1.15-1.08h2.66Z"/><path class="cls-1" d="M83.59,70.34c-.65.43-1.22.86-1.87,1.3-.07-1.15.07-2.3,0-3.46.43.86.94,1.51,1.87,2.16h0Z"/><path class="cls-1" d="M68.76,83.81c.65-.43,1.3-.86,1.94-1.3,2.09,1.73,4.03,3.24,5.33,4.03,2.74,1.94,1.51,3.89.72,4.32-.86.5-3.17.07-4.18-1.87-.29-.72-2.02-3.02-3.6-4.9-.07-.14-.14-.22-.22-.29h0Z"/><path class="cls-1" d="M92.81,68.04c2.81-1.8,5.33-3.46,7.56-4.75,1.22,1.3,2.02,3.02,2.02,5.04.14,4.1-5.26,6.91-9.72,7.2-4.39.29-5.54,0-7.99-.79-.86.65-2.09,1.3-2.95,2.02-.07-.5,0-1.08,0-1.58,1.8-1.15,3.6-2.3,5.33-3.38,3.1.86,6.34.72,6.91-1.01.43-1.37-.14-2.16-1.15-2.74h0Z"/><path class="cls-1" d="M100.58,63.14c2.23,3.53,4.18,7.06,5.54,10.22l-2.23,1.87h3.1c1.01,2.59,1.66,4.9,1.87,6.7.94,7.78,2.09,11.59-1.15,15.77-2.74,3.38-7.27,3.96-18.07.14,5.33,4.18,20.02,7.34,21.46-5.04.65-5.04-.5-11.23-2.88-17.57h4.68l-2.38-2.66.86-3.17h7.78l1.01,3.1-2.38,2.74h15.34l-3.53-3.17-7.13-20.88h-5.26c-1.58,1.15-3.24,2.38-4.9,3.6l-5.18,17.71c-2.45-5.76-5.76-11.45-9.5-16.78.86.43,1.51,1.01,2.3,1.73,0-2.38.07-4.9,0-7.27-.79.65-1.73,1.3-2.59,1.94-1.01-.07-1.73-.43-2.88-.79-3.17-4.25-6.62-8.21-10.08-11.45-14.11-13.46-27.86-21.82-37.15-16.42-9.36,5.47-1.37,26.42,2.88,34.34,1.15,2.3,2.95,5.04,4.9,7.92l-2.02,6.7-3.17,2.81h9l-2.45-2.81.94-3.02h.07c3.96,5.69,8.06,10.94,9.36,12.24.5-.36,1.08-.79,1.58-1.15-.94-.79-1.87-1.66-2.66-2.52-1.15-1.08-3.6-4.25-6.48-8.57h5.9l1.01,2.95-2.45,2.88h12.67c.5-.36,1.08-.79,1.58-1.08l-2.38-2.23-7.2-20.74h-12.82c-.07-.22,2.95,2.88,2.95,2.88l-2.88,9.65c-4.54-7.56-9.14-16.78-10.51-24.34-2.74-14.47,5.26-19.51,19.37-12.74,8.71,4.25,19.08,13.68,27.58,24.34-.58,0-1.3,0-2.16.07-4.9.22-8.64,4.25-8.78,7.99-.07,3.74,4.68,6.19,7.49,7.34.22.07.43.22.65.29,3.1-2.02,5.98-3.74,8.64-5.4-.65-.36-1.37-.72-2.09-1.01-3.74-1.44-6.98-1.8-7.13-3.89.07-1.37,2.88-2.38,6.34-1.58l4.03,5.76,1.58,2.59h0Z"/><polygon class="cls-1" points="21.38 51.19 31.97 51.19 40.54 65.88 40.54 54 38.3 51.19 46.51 51.19 44.14 53.86 44.14 71.86 46.8 75.24 35.86 75.24 27.43 60.91 27.43 72.86 29.95 75.24 21.53 75.24 23.76 72.14 23.83 54.07 21.38 51.19 21.38 51.19"/><path class="cls-2" d="M58.39,66.17h5.18l-2.74-8.42s-2.3,8.35-2.45,8.42h0Z"/><path class="cls-3" d="M61.2,58.82c-.22.07-.43.14-.72.22-.5,1.87-1.51,5.33-1.94,6.62,1.51-.36,3.1-.72,4.54-1.01l-1.87-5.83h0Z"/><path class="cls-2" d="M112.46,66.17h5.18l-2.74-8.28s-2.3,8.21-2.45,8.28h0Z"/><path class="cls-1" d="M75.1,4.54c.36.14.65.58.5.94-.14.43-.58.65-.94.58-.43-.14-.65-.58-.58-1.01.14-.36.58-.58,1.01-.5h0Z"/><path class="cls-1" d="M56.81,97.06c.5.14.86.72.65,1.22-.14.58-.65.86-1.22.72-.5-.14-.86-.72-.65-1.3.14-.5.72-.79,1.22-.65h0Z"/><path class="cls-1" d="M37.8,96.7c.5.14.86.72.65,1.3-.14.5-.72.79-1.22.65-.5-.14-.86-.72-.65-1.22.14-.58.72-.86,1.22-.72h0Z"/><path class="cls-1" d="M52.56,88.2c.36.14.58.58.5.94-.14.36-.5.58-.94.5-.36-.14-.58-.58-.5-.94.14-.36.58-.58.94-.5h0Z"/><path class="cls-1" d="M45.65,94.68c.29.07.43.43.36.72-.07.29-.43.43-.72.36s-.43-.43-.36-.72c.07-.29.36-.43.72-.36h0Z"/><path class="cls-1" d="M50.04,102.38c.36.14.58.5.5.86-.14.36-.5.58-.86.43-.36-.07-.58-.43-.43-.79.07-.36.43-.58.79-.5h0Z"/><path class="cls-1" d="M57.53,103.75c.29.07.43.36.36.65-.07.22-.36.43-.65.36-.29-.14-.43-.43-.36-.65.07-.29.43-.43.65-.36h0Z"/><path class="cls-1" d="M103.03,87.12c.36.14.58.5.43.79-.07.36-.43.5-.79.43-.29-.07-.5-.43-.43-.79.14-.29.5-.5.79-.43h0Z"/><path class="cls-1" d="M103.18,94.54c.36.07.58.5.5.86-.14.36-.58.58-.86.43-.36-.07-.65-.5-.5-.79.07-.36.5-.58.86-.5h0Z"/><path class="cls-1" d="M108.07,88.13c.36.07.65.58.5,1.01-.07.43-.58.72-1.01.58s-.65-.65-.58-1.01c.14-.43.65-.72,1.08-.58h0Z"/><path class="cls-1" d="M108,83.23c.5.14.86.79.72,1.3-.14.5-.79.86-1.3.72-.58-.14-.94-.79-.79-1.3.22-.58.79-.94,1.37-.72h0Z"/><path class="cls-1" d="M117.43,83.02c.36.07.65.58.5.94-.07.36-.58.58-.86.5-.43-.14-.65-.58-.58-.94.14-.36.58-.65.94-.5h0Z"/><path class="cls-1" d="M123.12,88.06c.36.14.58.58.43,1.01-.07.29-.5.58-.86.43-.43-.07-.65-.5-.58-.86.14-.43.58-.65,1.01-.58h0Z"/><path class="cls-1" d="M117.07,93.6c.36.07.58.58.5.94-.14.36-.58.58-.94.5-.36-.14-.65-.58-.5-.94.07-.36.5-.65.94-.5h0Z"/><path class="cls-1" d="M122.33,96.91c.29.07.58.5.43.86-.07.36-.5.58-.86.5-.36-.14-.58-.58-.43-.86.07-.36.5-.58.86-.5h0Z"/><path class="cls-1" d="M126.43,86.62c.36.14.65.65.58,1.01-.14.43-.65.72-1.01.58-.43-.14-.72-.65-.58-1.01.07-.43.58-.72,1.01-.58h0Z"/><path class="cls-1" d="M115.99,80.14c.29.07.43.36.36.58-.07.22-.36.36-.58.29-.22-.07-.36-.29-.29-.5.07-.29.29-.43.5-.36h0Z"/><path class="cls-1" d="M105.84,108.29c.43.14.79.72.65,1.22-.14.5-.72.79-1.22.65-.5-.14-.79-.72-.65-1.22.14-.5.72-.79,1.22-.65h0Z"/><path class="cls-1" d="M52.2,76.39c.29.07.43.36.36.65s-.43.5-.72.43c-.29-.14-.43-.43-.36-.72.07-.29.43-.5.72-.36h0Z"/><path class="cls-1" d="M34.99,95.18c.36.07.58.5.5.86-.14.43-.5.65-.86.5-.43-.07-.65-.5-.5-.86.07-.43.5-.65.86-.5h0Z"/><path class="cls-1" d="M35.78,91.37c.36.14.58.5.5.94-.14.36-.5.58-.94.43-.36-.07-.58-.5-.43-.86.07-.43.5-.65.86-.5h0Z"/><path class="cls-1" d="M28.94,92.16c.29.14.43.43.36.65-.07.29-.36.43-.65.36-.29-.07-.43-.36-.36-.65.07-.22.36-.43.65-.36h0Z"/><path class="cls-1" d="M70.99,11.45c.43.07.65.5.5.94-.14.43-.58.65-.94.5-.43-.07-.65-.5-.5-.94.07-.43.5-.65.94-.5h0Z"/><path class="cls-1" d="M78.48,12.6c.22.07.36.36.29.58-.07.22-.29.36-.58.29-.14-.07-.29-.29-.22-.58.07-.22.29-.36.5-.29h0Z"/><path class="cls-1" d="M78.77,20.23c.22.07.36.29.29.5-.07.29-.29.36-.58.29-.22-.07-.36-.29-.29-.5.07-.22.36-.36.58-.29h0Z"/><path class="cls-1" d="M62.78,16.99c.22.07.36.29.29.5-.07.29-.29.43-.5.36-.29-.07-.36-.36-.29-.58.07-.22.29-.36.5-.29h0Z"/><path class="cls-1" d="M64.15,18.07c.29.07.43.36.36.58-.07.22-.36.36-.58.29s-.36-.29-.29-.58c.07-.22.29-.36.5-.29h0Z"/><path class="cls-1" d="M51.84,29.45c.29.07.43.36.36.58-.07.22-.36.36-.58.29-.22-.07-.36-.29-.29-.58.07-.22.29-.29.5-.29h0Z"/><path class="cls-1" d="M66.17,18.86c.29.07.43.36.36.65-.07.36-.36.5-.72.43-.29-.07-.43-.36-.36-.72.14-.29.43-.43.72-.36h0Z"/><path class="cls-1" d="M63.65,21.1c.29.14.5.43.43.72-.14.29-.43.5-.72.36-.29-.07-.5-.36-.36-.72.07-.29.36-.43.65-.36h0Z"/><path class="cls-1" d="M72.94,16.92c.36.14.58.5.43.79-.07.43-.43.58-.86.5-.29-.14-.5-.43-.36-.86.07-.36.43-.5.79-.43h0Z"/><path class="cls-1" d="M53.93,32.33c.36.14.58.5.5.79-.14.43-.5.58-.86.5-.36-.14-.58-.43-.43-.86.07-.36.43-.5.79-.43h0Z"/><path class="cls-1" d="M87.34,24.55c.43.14.72.58.58,1.01-.14.5-.58.72-1.08.58-.43-.14-.65-.58-.5-1.01.14-.5.58-.72,1.01-.58h0Z"/><path class="cls-1" d="M86.4,10.87l.58-4.9.43,4.9c.14.07.29.14.36.29l3.38.36-3.31.43c-.07.29-.22.43-.43.58l-.43,5.18-.5-5.18c-.22-.14-.36-.36-.43-.58l-3.38-.22,3.46-.5c.07-.14.22-.29.29-.36h0Z"/><path class="cls-1" d="M57.53,29.74l.5-3.1.43,3.1c.14.07.29.22.36.36l2.45.29-2.38.5c-.07.22-.22.43-.43.5l-.43,4.18-.5-4.18c-.22-.14-.36-.29-.43-.5l-2.16-.22,2.23-.58c.07-.14.22-.29.36-.36h0Z"/><path class="cls-1" d="M123.77,82.3l.5-3.1.43,3.1c.14.07.29.14.36.29l2.3.43-2.23.36c-.07.22-.22.43-.43.58l-.5,3.1-.43-3.1c-.22-.14-.36-.36-.43-.58l-2.88-.29,2.95-.43c.07-.14.22-.29.36-.36h0Z"/><path class="cls-1" d="M117.94,96.55l.43-1.8.58,1.8c.14.07.22.22.29.36l1.66.58-1.51.22c-.07.22-.29.43-.43.58l-.43,1.87-.58-1.94c-.22-.07-.36-.29-.43-.5l-1.87-.22,2.02-.5c.07-.22.14-.29.29-.43h0Z"/><path class="cls-1" d="M51.62,109.51l.29-2.95.72,2.95c.14.07.29.22.36.29l2.52.36-2.45.43c-.07.29-.22.5-.43.58l-.5,3.02-.5-3.02c-.14-.14-.29-.36-.36-.58l-2.45-.29,2.52-.43c.07-.14.14-.29.29-.36h0Z"/><path class="cls-1" d="M72.07,102.24c.43.14.72.58.58,1.01-.14.43-.58.72-1.01.58-.43-.14-.72-.58-.58-1.01.14-.43.58-.72,1.01-.58h0Z"/><path class="cls-1" d="M84.24,97.99c.29.07.5.43.43.72-.14.36-.5.58-.79.43-.36-.07-.5-.43-.43-.72.07-.36.43-.58.79-.43h0Z"/></svg>